# xmcd CD database file
#
# Track frame offsets:
#	150
#	38087
#	63856
#	89158
#	126650
#	152515
#
# Disc length: 2408 seconds
#
# Revision: 0
# Processed by: cddbd v1.5.2PL0 Copyright (c) Steve Scherf et al.
# Submitted via: CDex 1.70beta2
#
DISCID=4d096606
DTITLE=McIntyre, Ken 6tet - Introducing the vibrations
DYEAR=1976
DGENRE=Jazz
TTITLE0=theme
TTITLE1=eileen
TTITLE2=shortie
TTITLE3=clear eyes
TTITLE4=now is the time
TTITLE5=miss priss
EXTD=YEAR: 1976
EXTT0=
EXTT1=
EXTT2=
EXTT3=
EXTT4=
EXTT5=
PLAYORDER=
